<svg xmlns="http://www.w3.org/2000/svg" width="125.667" height="57.228" viewBox="0 0 125.667 57.228"><g id="Group_142" data-name="Group 142" transform="translate(-65 -6.8)"><g id="Group_1" data-name="Group 1" transform="translate(65 6.8)"><path id="Path_1" data-name="Path 1" d="M243.757-53.78a2.508,2.508,0,0,1-2.509,2.508,2.508,2.508,0,0,1-2.506-2.508,2.508,2.508,0,0,1,2.506-2.506,2.509,2.509,0,0,1,2.509,2.506" transform="translate(-207.136 71.768)" fill-rule="evenodd"></path><path id="Path_2" data-name="Path 2" d="M227.569-66.4a.3.3,0,0,1,.3.289c.2,2.1,1.514,7.229,9.965,14.191,3.3,2.713,7.745,5.706,8.892,7.151.032.043.081.1.055.089a.581.581,0,0,1-.106-.06c-3.978-2.56-24.533-11.715-19.7-21.033.242-.465.367-.632.586-.628" transform="translate(-213.768 66.398)" fill-rule="evenodd"></path><path id="Path_3" data-name="Path 3" d="M240.469-52.644a.513.513,0,0,1,.185.047c1.8.631,9.523,3.774,8.388,10.815-2.015,12.522-16.048,16.4-12.371,25.274a.06.06,0,0,1,0,.026c-.012.014-.02.009-.037,0-4.979-1.39-4.516-8.857.622-13.833,13.276-12.85,7.147-19.94,3.43-22.178-.081-.051-.072-.047-.153-.092-.052-.028-.089-.057-.064-.063" transform="translate(-210.11 73.701)"></path><path id="Path_4" data-name="Path 4" d="M247.78-46.034v0c-3.56-4.1-11.374-10.308-28.247-16.028-.06-.017-.542-.184-.792.447a2.644,2.644,0,0,0,.3,2.176c1.286,2.312,4.1,5.844,11.394,7.562,4.034.951,10.859,2.889,16.621,7.447.39.311,1.358,1.387,1.156,1.753-.8-.571-2.626-1.8-3.8-2.468-10.506-6-13.067-5.264-24.813-8.37-1.157-.193-1.413.433-1.484.813a3.445,3.445,0,0,0,.787,2.03c4.178,5.08,5.95,3.674,16.665,5.587,4.152.744,11.662,3.417,13.994,6.185.433.49.491,1.386.242,1.508-2.166-2.883-7.773-4.55-10.6-5.322-5.951-1.627-11.646-2.186-14.4-1.946a1.461,1.461,0,0,0-1.513,1.718c.77,2.8,2.716,2.1,5.577,2.274,10.409.645,12.195,1.5,15.6,3.4,6.257,3.486.8,5.927-3.059,7.139-.179.057-.219.127-.126.127a1.8,1.8,0,0,0,.25-.018c7.095-.654,8.525-2.88,9.054-3.95,1.281-2.58,1.468-6.7-2.8-12.064" transform="translate(-218.098 68.682)"></path></g><g id="Group_2" data-name="Group 2" transform="translate(112.182 26.325)"><path id="Path_5" data-name="Path 5" d="M272.943-49.526c-1.6-2.315,2.48-4.169,3.158-2.2a2.035,2.035,0,0,1-3.158,2.2" transform="translate(-231.048 52.555)" fill-rule="evenodd"></path><path id="Path_6" data-name="Path 6" d="M295.277-52.453c2.842-.428,1.788,3.9-.69,3.3-1.64-.4-1.089-3.027.69-3.3" transform="translate(-218.494 52.598)" fill-rule="evenodd"></path><path id="Path_7" data-name="Path 7" d="M253.99-50.816c-1.024,4.241-1.59,8.94-2.472,13.319h4.8c1.067-.9,1.177-2.761,2.75-3.157.648.54.211,1.574,0,2.475a7.109,7.109,0,0,1-.824,2.472c-2.782-.051-6.368.065-9.477,0-.843-.018-2.312.313-2.2-.961a3.586,3.586,0,0,1,1.923-.688c.776-4.444,1.6-8.838,2.336-13.323a5.717,5.717,0,0,0-1.512-.546c.03-.431-.093-1.009.139-1.237,1.448.6,6.312-.612,6.318.687,0,.933-.907.679-1.787.961" transform="translate(-246.567 52.61)" fill-rule="evenodd"></path><path id="Path_8" data-name="Path 8" d="M266.082-43.263h-7.143c-.632,3.23,1.407,3.706,4.671,3.706.567,0,1.351-.481,1.646.276.2.859-.9,1.153-1.509,1.373-3.9,1.41-8.259,0-7.968-4.532.219-3.38,3.016-6.368,5.632-6.73,4.008-.551,5.911,2.167,4.671,5.906m-6.73-1.787h4.121a3.229,3.229,0,0,0-.275-2.333c-2.162-.624-3.4.79-3.847,2.333" transform="translate(-241.078 54.533)" fill-rule="evenodd"></path><path id="Path_9" data-name="Path 9" d="M276.489-49.2c-.069,3.182-1.177,6.512-1.509,9.889a4.136,4.136,0,0,0,1.373.41v1.239c-1.947-.16-4.546.334-6.042-.276v-.685c.235-.544,1.186-.375,1.648-.688.626-2.35.953-5,1.373-7.553-.225-.463-1.177-.195-1.373-.687V-48.1c.431-.647,1.388-.527,2.2-.685a10.738,10.738,0,0,1,2.333-.414" transform="translate(-232.397 54.559)" fill-rule="evenodd"></path><path id="Path_10" data-name="Path 10" d="M280.865-49.191c.49-.08.415.41.412.824,1.865-.881,5.033-1.439,6.18.275,1.542,2.312-.806,5.924-.685,8.65.2.487,1.059.318,1.372.691v.961a13.931,13.931,0,0,1-3.3.137c-1.052,0-2.663.346-2.609-.826.086-.647.958-.508,1.511-.687.235-1.477.913-3.665,1.1-5.491a2.765,2.765,0,0,0-.414-2.2,5.428,5.428,0,0,0-3.569.273c-.369,2.472-.867,4.813-1.239,7.28.34.3.98.3,1.376.551a2.549,2.549,0,0,0-.137,1.1c-1.523-.35-6.148.816-5.908-.826.109-.731,1.087-.439,1.787-.824.367-2.561.988-4.869,1.237-7.553-.2-.492-1.151-.227-1.376-.687v-.551c.249-.516,1.158-.567,1.785-.685.9-.174,1.475-.206,2.475-.414" transform="translate(-229.63 54.554)" fill-rule="evenodd"></path><path id="Path_11" data-name="Path 11" d="M295.475-48.487a8.526,8.526,0,0,1-.824,2.2c-.262.658-.225,1.843-1.371,1.649-.656-.492-.382-1.911-.688-2.748-4.405-1.341-7.005,6.978-2.884,7.826,1.376.287,3.249-.567,4.12.276.2.859-.862,1.134-1.511,1.373-3.125,1.156-7.155.382-7.692-2.884-.939-5.723,5-10.294,10.85-7.693" transform="translate(-223.914 54.536)" fill-rule="evenodd"></path><path id="Path_12" data-name="Path 12" d="M297.478-49.194c-.118,3.136-1.21,6.48-1.51,9.889.283.358,1.091.19,1.372.551v.961c-1.675.153-4.588.385-6.042-.139v-.685c.18-.6,1.2-.353,1.648-.688.576-2.4.918-5.033,1.373-7.553-.225-.463-1.175-.195-1.373-.687V-48.1c.4-.647,1.448-.538,2.2-.685a9.24,9.24,0,0,1,2.336-.414" transform="translate(-219.874 54.558)" fill-rule="evenodd"></path><path id="Path_13" data-name="Path 13" d="M263.172-49.009c.68,0,2.293-.008,3.431,0,1.046,0,2.531-.31,2.338.822-.126.468-.766.428-1.238.551A33.8,33.8,0,0,0,268.8-42c1.26-1.672,2.077-3.783,3.294-5.494-.179-.369-.865-.232-1.1-.551v-.96a30.966,30.966,0,0,1,4.669.137v.685c-.136.6-1.049.417-1.51.688-2.061,3.111-3.974,6.37-5.766,9.751a8.3,8.3,0,0,1-1.651.136c-.61-3.374-1.483-6.481-2.2-9.75-.308-.335-.9-.388-1.373-.552Z" transform="translate(-236.658 54.649)" fill-rule="evenodd"></path></g></g></svg>