<svg xmlns="http://www.w3.org/2000/svg" version="1.1" xmlns:xlink="http://www.w3.org/1999/xlink" xmlns:svgjs="http://svgjs.dev/svgjs" width="1500" height="939" viewBox="0 0 1500 939"><g transform="matrix(1,0,0,1,-0.9090909090909918,-1.5145161290323017)"><svg viewBox="0 0 396 248" data-background-color="#000000" preserveAspectRatio="xMidYMid meet" height="939" width="1500" xmlns="http://www.w3.org/2000/svg" xmlns:xlink="http://www.w3.org/1999/xlink"><g id="tight-bounds" transform="matrix(1,0,0,1,0.2400000000000091,0.4000000000000057)"><svg viewBox="0 0 395.52 247.2" height="247.2" width="395.52"><g><svg></svg></g><g><svg viewBox="0 0 395.52 247.2" height="247.2" width="395.52"><mask id="4cd68ed3-37f2-444c-bc65-7dbca2cfd157"><rect width="640" height="400" fill="white"></rect><g transform="matrix(1,0,0,1,93.3721039699987,32.5263157894737)"><svg viewBox="0 0 208.77579206000257 182.1473684210526" height="182.1473684210526" width="208.77579206000257"><g><svg viewBox="0 0 208.77579206000257 182.1473684210526" height="182.1473684210526" width="208.77579206000257"><g><svg viewBox="0 0 208.77579206000257 182.1473684210526" height="182.1473684210526" width="208.77579206000257"><g id="SvgjsG1722"><svg viewBox="0 0 208.77579206000257 182.1473684210526" height="182.1473684210526" width="208.77579206000257" id="SvgjsSvg1721"><g><svg viewBox="0 0 208.77579206000257 182.1473684210526" height="182.1473684210526" width="208.77579206000257"><g transform="matrix(1,0,0,1,0,0)"><svg width="208.77579206000257" viewBox="-1.5 -37.7 47.65 41.7" height="182.1473684210526" data-palette-color="#ffffff"><path d="M11.25-13.05L10.2 0 2.5 0 5.4-33.7 13.85-33.7 18.55-21.5Q19.75-18.45 20.6-15.9 21.45-13.35 21.7-12.3L21.7-12.3 21.95-11.3Q22.75-14.6 25.45-21.5L25.45-21.5 30.2-33.7 38.65-33.7 42.15 0 34.45 0 33.2-13.05 32.55-22.9Q31.25-19.15 28.95-13.05L28.95-13.05 24.2-0.35 19.65-0.35 14.95-13.05Q13.8-16.15 13-18.6 12.2-21.05 11.95-22L11.95-22 11.7-22.9Q11.7-19.35 11.25-13.05L11.25-13.05Z" opacity="1" transform="matrix(1,0,0,1,0,0)" fill="black" class="wordmark-text-0" id="SvgjsPath1720" stroke-width="7" stroke="black" stroke-linejoin="round"></path></svg></g></svg></g></svg></g></svg></g><g></g></svg></g></svg></g></mask><g transform="matrix(1,0,0,1,93.3721039699987,32.5263157894737)"><svg viewBox="0 0 208.77579206000257 182.1473684210526" height="182.1473684210526" width="208.77579206000257"><g><svg viewBox="0 0 208.77579206000257 182.1473684210526" height="182.1473684210526" width="208.77579206000257"><g><svg viewBox="0 0 208.77579206000257 182.1473684210526" height="182.1473684210526" width="208.77579206000257"><g id="textblocktransform"><svg viewBox="0 0 208.77579206000257 182.1473684210526" height="182.1473684210526" width="208.77579206000257" id="textblock"><g><svg viewBox="0 0 208.77579206000257 182.1473684210526" height="182.1473684210526" width="208.77579206000257"><g transform="matrix(1,0,0,1,0,0)"><svg width="208.77579206000257" viewBox="-1.5 -37.7 47.65 41.7" height="182.1473684210526" data-palette-color="#ffffff"><path d="M11.25-13.05L10.2 0 2.5 0 5.4-33.7 13.85-33.7 18.55-21.5Q19.75-18.45 20.6-15.9 21.45-13.35 21.7-12.3L21.7-12.3 21.95-11.3Q22.75-14.6 25.45-21.5L25.45-21.5 30.2-33.7 38.65-33.7 42.15 0 34.45 0 33.2-13.05 32.55-22.9Q31.25-19.15 28.95-13.05L28.95-13.05 24.2-0.35 19.65-0.35 14.95-13.05Q13.8-16.15 13-18.6 12.2-21.05 11.95-22L11.95-22 11.7-22.9Q11.7-19.35 11.25-13.05L11.25-13.05Z" opacity="1" transform="matrix(1,0,0,1,0,0)" fill="#ffffff" class="wordmark-text-0" data-fill-palette-color="primary" id="text-0"></path></svg></g></svg></g></svg></g></svg></g><g></g></svg></g></svg></g><g mask="url(#4cd68ed3-37f2-444c-bc65-7dbca2cfd157)"><g transform="matrix(3.1844155844155844, 0, 0, 3.1844155844155844, 58.60103896103894, 1)"><svg xmlns="http://www.w3.org/2000/svg" xmlns:xlink="http://www.w3.org/1999/xlink" version="1.1" x="0" y="0" viewBox="6.3 11.5 87.4 77" style="enable-background:new 0 0 100 100;" xml:space="preserve" height="77" width="87.4" class="icon-none" data-fill-palette-color="accent" id="none"><path d="M72.3 12.3L71.9 11.5H28.2L6.3 50 28.1 88.5H71.8L93.7 50zM33.3 25.3L9.9 47.7 28.5 14.9zM70.7 14.8L77.1 50.5 36.9 25.8zM35.5 27.3L76.5 52.5 35.5 75.8zM77 54.5L69.8 85.3 37.2 77.2zM33.5 75L9.9 50.5 33.5 27.8zM33.2 77.6L28.6 85.3 11.5 55.1zM35 78.6L66.4 86.5H30.2zM79.3 53.3L90.9 50.8 72.1 84zM90.7 48.9L79.3 51.4 73.4 18.3zM35 24.3L30 13.5H68.2z" fill="#ffffff" data-fill-palette-color="accent"></path></svg></g></g></svg></g><defs></defs></svg><rect width="395.52" height="247.2" fill="none" stroke="none" visibility="hidden"></rect></g></svg></g></svg>